<svg data-name="Layer 1" id="Layer_1" viewBox="0 0 64 64" xmlns="http://www.w3.org/2000/svg"><defs><style>.cls-1{fill:#fcdd7c;}.cls-2{fill:#65c8d0;}.cls-3{fill:#ba9bc9;}</style></defs><circle class="cls-1" cx="32" cy="32" r="10"/><circle class="cls-2" cx="57" cy="57" r="5"/><circle class="cls-2" cx="47" cy="16" r="5"/><circle class="cls-2" cx="7" cy="57" r="5"/><circle class="cls-2" cx="7" cy="7" r="5"/><path class="cls-2" d="M34,31H31.62l1.27-2.55-1.78-.9-2,4A1,1,0,0,0,30,33h2.38l-1.27,2.55,1.78.9,2-4A1,1,0,0,0,34,31Z"/><path class="cls-3" d="M57,51a6,6,0,0,0-3.47,1.11L40.45,39a10.95,10.95,0,0,0-.19-14.27L43.66,21A5.93,5.93,0,0,0,47,22a6,6,0,1,0-4.78-2.39l-3.41,3.77a10.93,10.93,0,0,0-14.3.59l-12.7-13.4A5.92,5.92,0,0,0,13,7a6,6,0,1,0-2.62,5l12.79,13.5A11,11,0,0,0,23.55,39L10.47,52.11a6,6,0,1,0,1.42,1.42L25,40.45a11,11,0,0,0,14.06,0L52.11,53.53A6,6,0,1,0,57,51ZM47,12a4,4,0,1,1-4,4A4,4,0,0,1,47,12ZM3,7a4,4,0,1,1,4,4A4,4,0,0,1,3,7ZM7,61a4,4,0,1,1,4-4A4,4,0,0,1,7,61ZM32,41a9,9,0,1,1,9-9A9,9,0,0,1,32,41ZM57,61a4,4,0,1,1,4-4A4,4,0,0,1,57,61Z"/></svg>
