<svg id="Layer_1" style="enable-background:new 0 0 50 50;" version="1.1" viewBox="0 0 50 50" xml:space="preserve" xmlns="http://www.w3.org/2000/svg" xmlns:xlink="http://www.w3.org/1999/xlink"><style type="text/css">
	.st0{fill:#F0C4DB;}
	.st1{fill:#FF9D9C;}
	.st2{fill:#9BEAF9;}
	.st3{fill:#E9F4BC;}
	.st4{fill:#505050;}
	.st5{fill:#FEBECC;}
	.st6{fill:#FFFFFF;}
	.st7{fill:#FDE4A1;}
	.st8{fill:#FEE7B5;}
	.st9{fill:#CDF6FC;}
	.st10{fill:#F2C6DD;}
	.st11{opacity:0.1;}
</style><g><path class="st5" d="M20.39,1.07c-0.66,2.04-1.03,4.22-1.03,6.48c0,11.6,9.4,21,21,21c3.07,0,5.98-0.67,8.61-1.86V1.07H20.39z"/><g><rect class="st5" height="4" width="46" x="1.79" y="44.18"/><rect class="st1" height="18.88" width="6" x="8.2" y="22.31"/><rect class="st3" height="24.37" width="6" x="17.81" y="16.81"/><rect class="st1" height="17.41" width="6" x="27.41" y="23.78"/><rect class="st3" height="26.37" width="6" x="37.02" y="14.81"/><circle class="st1" cx="29.59" cy="14.32" r="2.18"/><circle class="st1" cx="19.98" cy="5.14" r="2.18"/><g><path class="st4" d="M48.31,43.65c-0.15-0.14-0.33-0.22-0.53-0.22h-38c-0.41,0-0.75,0.34-0.75,0.75c0,0.42,0.34,0.75,0.75,0.75     h37.25v2.5H2.53v-2.5h3.25c0.41,0,0.75-0.33,0.75-0.75c0-0.4-0.33-0.74-0.74-0.75H5.78h-4c-0.2,0-0.39,0.08-0.53,0.22     c-0.14,0.14-0.22,0.33-0.22,0.53v4c0,0.2,0.08,0.4,0.22,0.53c0.14,0.14,0.33,0.22,0.53,0.22h46c0.2,0,0.39-0.07,0.53-0.22     c0.14-0.14,0.22-0.33,0.22-0.53v-4C48.53,43.98,48.45,43.79,48.31,43.65z"/><circle class="st4" cx="7.78" cy="44.18" r="0.75"/><path class="st4" d="M8.2,41.93h6c0.41,0,0.75-0.34,0.75-0.75V22.31c0-0.41-0.34-0.75-0.75-0.75h-6c-0.41,0-0.75,0.34-0.75,0.75     v18.88C7.45,41.6,7.79,41.93,8.2,41.93z M8.95,23.06h4.5v17.38h-4.5V23.06z"/><path class="st4" d="M17.81,16.06c-0.41,0-0.75,0.34-0.75,0.75v24.37c0,0.41,0.34,0.75,0.75,0.75h6c0.41,0,0.75-0.34,0.75-0.75     V16.81c0-0.41-0.34-0.75-0.75-0.75H17.81z M23.06,40.43h-4.5V17.56h4.5V40.43z"/><path class="st4" d="M27.41,23.03c-0.41,0-0.75,0.34-0.75,0.75v17.41c0,0.41,0.34,0.75,0.75,0.75h6c0.41,0,0.75-0.34,0.75-0.75     V23.78c0-0.41-0.34-0.75-0.75-0.75H27.41z M32.66,40.43h-4.5V24.53h4.5V40.43z"/><path class="st4" d="M36.27,14.81v26.37c0,0.41,0.34,0.75,0.75,0.75h6c0.41,0,0.75-0.34,0.75-0.75V14.81     c0-0.41-0.34-0.75-0.75-0.75h-6C36.6,14.06,36.27,14.4,36.27,14.81z M37.77,15.56h4.5v24.87h-4.5V15.56z"/><path class="st4" d="M10.38,15.72c0.2,0,0.39-0.08,0.54-0.23l7.6-7.84c0.43,0.25,0.93,0.41,1.46,0.41c0.57,0,1.1-0.17,1.55-0.45     l5.51,5.29c-0.23,0.42-0.38,0.9-0.38,1.41c0,1.61,1.31,2.93,2.93,2.93c1.61,0,2.93-1.31,2.93-2.93c0-0.65-0.22-1.24-0.58-1.73     l6.78-8.48l0.13,2.11c0.02,0.4,0.35,0.71,0.75,0.71c0.02,0,0.03,0,0.05,0c0.41-0.02,0.73-0.38,0.7-0.79l-0.23-3.87     c-0.01-0.2-0.1-0.38-0.25-0.52s-0.34-0.2-0.54-0.19l-0.16,0.01c-0.02,0-0.04,0-0.07,0l-3.65,0.22c-0.41,0.02-0.73,0.38-0.7,0.79     c0.03,0.41,0.38,0.73,0.79,0.7l2.02-0.12l-6.78,8.48c-0.36-0.16-0.76-0.25-1.18-0.25c-0.55,0-1.07,0.16-1.51,0.43l-5.53-5.31     c0.22-0.41,0.36-0.88,0.36-1.38c0-1.61-1.31-2.93-2.93-2.93c-1.61,0-2.93,1.31-2.93,2.93c0,0.53,0.15,1.03,0.41,1.46l-7.62,7.85     c-0.29,0.3-0.28,0.77,0.02,1.06C10,15.65,10.19,15.72,10.38,15.72z M31.01,14.32c0,0.79-0.64,1.43-1.43,1.43     c-0.79,0-1.43-0.64-1.43-1.43s0.64-1.43,1.43-1.43C30.37,12.89,31.01,13.53,31.01,14.32z M19.98,3.71c0.79,0,1.43,0.64,1.43,1.43     s-0.64,1.43-1.43,1.43c-0.79,0-1.43-0.64-1.43-1.43S19.2,3.71,19.98,3.71z"/></g></g></g></svg>
