<svg data-name="Layer 1" id="Layer_1" viewBox="0 0 256 256" xmlns="http://www.w3.org/2000/svg"><defs><style>.cls-1{fill:#effafe;}.cls-2{fill:#40bdff;}.cls-3{fill:#e4ebed;}.cls-4{fill:#2197f7;}.cls-5{fill:#263238;}.cls-6{fill:#fd0;}</style></defs><title/><path class="cls-1" d="M58.92,143.62l-.38.73H205.47l-.38-.73a68.84,68.84,0,0,0-61.18-37.08H120.1A68.84,68.84,0,0,0,58.92,143.62Z"/><path class="cls-2" d="M220.19,148.35H43.81A8,8,0,0,0,36,157.89l13.57,69.34a8,8,0,0,0,7.85,6.46H206.63a8,8,0,0,0,7.85-6.46L228,157.89A8,8,0,0,0,220.19,148.35Z"/><path class="cls-1" d="M136.66,102.54h0a45.4,45.4,0,1,0-9.31,0Z"/><path class="cls-3" d="M205.08,143.62a68.84,68.84,0,0,0-61.18-37.08h-10a68.84,68.84,0,0,1,61.18,37.08l.38.73h10Z"/><path class="cls-4" d="M220.19,148.35h-10a8,8,0,0,1,7.85,9.54l-13.57,69.35a8,8,0,0,1-7.85,6.46h10a8,8,0,0,0,7.85-6.46L228,157.89A8,8,0,0,0,220.19,148.35Z"/><path class="cls-3" d="M132,12a45.64,45.64,0,0,0-5,.28,45.38,45.38,0,0,1,0,90.21l.36,0h9.31A45.39,45.39,0,0,0,132,12Z"/><path class="cls-5" d="M49.78,143.85h-10a12.5,12.5,0,0,0-12.27,14.9L41.11,228.1a12.53,12.53,0,0,0,12.27,10.1H202.63a12.52,12.52,0,0,0,12.27-10.1l13.57-69.34a12.5,12.5,0,0,0-12.27-14.9h-10A73.71,73.71,0,0,0,149,102.62a49.89,49.89,0,1,0-42,0A73.7,73.7,0,0,0,49.78,143.85Zm166.41,5a7.5,7.5,0,0,1,7.36,8.94L210,227.14a7.51,7.51,0,0,1-7.36,6.06H53.37A7.51,7.51,0,0,1,46,227.14L32.45,157.79a7.5,7.5,0,0,1,7.36-8.94H216.19ZM83.11,57.39A44.89,44.89,0,1,1,132.63,102h-9.26A45,45,0,0,1,83.11,57.39Zm33,49.65H139.9a68.67,68.67,0,0,1,60.74,36.81H55.36A68.67,68.67,0,0,1,116.1,107Z"/><path class="cls-5" d="M228.35,243.5H27.65a2.5,2.5,0,0,0,0,5h200.7a2.5,2.5,0,1,0,0-5Z"/><path class="cls-6" d="M78.15,12.19v4h-4a1,1,0,0,0,0,2h4v4a1,1,0,0,0,2,0v-4h4a1,1,0,0,0,0-2h-4v-4a1,1,0,1,0-2,0Z"/><path class="cls-6" d="M226,118.39v4h-4a1,1,0,0,0,0,2h4v4a1,1,0,0,0,2,0v-4h4a1,1,0,0,0,0-2h-4v-4a1,1,0,0,0-2,0Z"/><path class="cls-6" d="M43,101.54v4H39a1,1,0,0,0,0,2h4v4a1,1,0,1,0,2,0v-4h4a1,1,0,1,0,0-2H45v-4a1,1,0,0,0-2,0Z"/><path class="cls-2" d="M30.54,48a6,6,0,1,1-6-6A6,6,0,0,1,30.54,48Zm-10,0a4,4,0,1,0,4-4A4,4,0,0,0,20.54,48Z"/><path class="cls-2" d="M238.94,197.29a6,6,0,1,1-6-6A6,6,0,0,1,238.94,197.29Zm-10,0a4,4,0,1,0,4-4A4,4,0,0,0,228.94,197.29Z"/></svg>
